<?xml version="1.0" encoding="UTF-8"?>
<svg id="Layer_2" data-name="Layer 2" xmlns="http://www.w3.org/2000/svg" xmlns:xlink="http://www.w3.org/1999/xlink" viewBox="0 0 307.74 307.74">
  <defs>
    <style>
      .cls-1 {
        fill: url(#linear-gradient);
      }

      .cls-1, .cls-2, .cls-3 {
        stroke-width: 0px;
      }

      .cls-2 {
        fill: url(#linear-gradient-2);
      }

      .cls-3 {
        fill: url(#linear-gradient-3);
      }
    </style>
    <linearGradient id="linear-gradient" x1="48.45" y1="248.35" x2="260.88" y2="63" gradientUnits="userSpaceOnUse">
      <stop offset=".03" stop-color="#8c2aba"/>
      <stop offset=".8" stop-color="#241eff"/>
    </linearGradient>
    <linearGradient id="linear-gradient-2" x1="-38.86" y1="272.99" x2="297.61" y2="66.26" xlink:href="#linear-gradient"/>
    <linearGradient id="linear-gradient-3" x1="-31.13" y1="285.57" x2="305.34" y2="78.84" gradientUnits="userSpaceOnUse">
      <stop offset=".03" stop-color="#8c2aba"/>
      <stop offset=".73" stop-color="#241eff"/>
    </linearGradient>
  </defs>
  <g id="Layer_1-2" data-name="Layer 1">
    <g>
      <path class="cls-1" d="m244.89,65.25c-20.19,1.12-39.21,6.76-57.55,14.96-25.27,11.3-45.31,28.58-59.56,52.4-1.08,1.82-2.32,1.76-3.98,1.53-8.98-1.29-17.14.94-24.74,5.72-10.91,6.88-17.6,16.94-21.84,28.85-.88,2.48-1.43,5.07-2.13,7.61,1.42-.21,2.15-.7,2.84-1.25,8.02-6.39,17.14-10.22,27.24-11.87,3.63-.59,6.53.03,9.1,3.02,2.64,3.06,5.85,5.64,9,8.61.03-.03.08-.07.12-.1l24.39-24.39c1.7-1.7,4.14-2.22,6.29-1.56,1.04.2,2,.68,2.79,1.44,1.44,1.4,2,2.89,1.65,4.52v.04c0,1.61-.62,3.22-1.84,4.45l-24.28,24.28c3.4,3.67,6.26,6.66,8.95,9.82.85,1.01,1.48,2.56,1.49,3.86.04,10.74-2.89,20.68-8.56,29.8-.94,1.52-1.87,3.04-3.17,5.18,10.53-2.24,18.93-6.91,26.19-13.71,10.72-10.05,14.09-22.77,12.93-36.95.88-.38,1.48-.69,2.12-.91,11.47-3.94,21.67-10.05,30.67-18.12,28.82-25.86,40.17-59.82,45.06-97.23-1.23,0-2.21-.05-3.18,0Zm-60.96,83.32c-13.3.03-22.87-9.38-22.78-22.42.08-11.98,10.52-22.08,22.81-22.07,12.22.01,21.89,10.05,21.89,22.72s-9.51,21.73-21.92,21.76Z"/>
      <path class="cls-2" d="m263.29,153.87c0,60.43-48.99,109.42-109.42,109.42-19.37,0-37.58-5.04-53.36-13.88-6.95,1.83-46.9.66-46.9.66,0,0-.94-32.11,2.84-45.33.06-.21.12-.42.19-.64-2.93-5.65-5.38-11.59-7.3-17.77-2.9-9.35-4.58-19.24-4.86-29.48-1.65-61.6,48.45-112.79,110.08-112.41,8.66.05,17.08,1.12,25.15,3.08l26.73-38.31C190.05,3.26,172.34,0,153.87,0c-2.82,0-5.67.08-8.53.23C70.82,4.25,5.02,69.4.32,143.88c-5.66,89.5,65.27,163.86,153.56,163.86s153.87-68.89,153.87-153.87h-44.45Z"/>
      <path class="cls-3" d="m101.67,182.73l21.88,21.88s-7.94,24.05-46.98,24.63c0,0-2.4-32.73,25.1-46.51Z"/>
    </g>
  </g>
</svg>