<?xml version="1.0" encoding="UTF-8"?>
<svg id="Layer_2" data-name="Layer 2" xmlns="http://www.w3.org/2000/svg" xmlns:xlink="http://www.w3.org/1999/xlink" viewBox="0 0 1081 1081">
  <defs>
    <style>
      .cls-1 {
        fill: url(#catalystgrad2-2);
      }

      .cls-1, .cls-2 {
        stroke-width: 0px;
      }

      .cls-3 {
        fill: #fff;
        stroke: #231f20;
        stroke-miterlimit: 10;
      }

      .cls-2 {
        fill: url(#catalystgrad2);
      }
    </style>
    <linearGradient id="catalystgrad2" x1="-23.16" y1="888.87" x2="960.87" y2="284.27" gradientUnits="userSpaceOnUse">
      <stop offset=".19" stop-color="#0f588d"/>
      <stop offset=".97" stop-color="#0da7cd"/>
    </linearGradient>
    <linearGradient id="catalystgrad2-2" data-name="catalystgrad2" x1="133.34" y1="903.05" x2="857.52" y2="271.22" xlink:href="#catalystgrad2"/>
  </defs>
  <g id="Layer_1-2" data-name="Layer 1">
    <g>
      <rect class="cls-3" x=".5" y=".5" width="1080" height="1080"/>
      <g>
        <path class="cls-2" d="m860.5,540.5c0,176.74-143.26,320-320,320-56.66,0-109.9-14.74-156.06-40.58-20.32,5.34-137.16,1.92-137.16,1.92,0,0-2.76-93.92,8.32-132.56.18-.62.36-1.24.56-1.86-8.58-16.52-15.72-33.9-21.34-51.96-8.48-27.34-13.4-56.26-14.2-86.22-4.84-180.14,141.7-329.86,321.92-328.74,25.32.16,49.94,3.28,73.56,9l78.18-112.04c-47.98-17.44-99.78-26.96-153.8-26.96-8.26,0-16.58.22-24.94.68-217.94,11.76-410.36,202.28-424.12,420.1-16.54,261.76,190.88,479.22,449.08,479.22s450-201.48,450-450h-130Z"/>
        <path class="cls-1" d="m806.7,281.32c-59.04,3.28-114.66,19.76-168.3,43.74-73.9,33.04-132.52,83.58-174.2,153.24-3.16,5.32-6.78,5.16-11.64,4.48-26.26-3.76-50.12,2.74-72.36,16.74-31.92,20.12-51.48,49.54-63.86,84.36-2.58,7.24-4.18,14.84-6.22,22.26,4.14-.6,6.28-2.04,8.3-3.66,23.46-18.68,50.14-29.88,79.66-34.72,10.62-1.74,19.1.1,26.62,8.84,7.72,8.96,17.1,16.5,26.32,25.18.1-.1.22-.2.34-.3l71.34-71.34c4.98-4.98,12.1-6.5,18.4-4.56,3.04.58,5.86,1.98,8.16,4.22,4.22,4.1,5.84,8.46,4.82,13.22v.12c0,4.7-1.8,9.42-5.38,13l-71,71c9.94,10.74,18.32,19.48,26.16,28.72,2.48,2.94,4.34,7.48,4.36,11.3.12,31.42-8.44,60.48-25.02,87.16-2.76,4.44-5.46,8.88-9.28,15.14,30.8-6.54,55.36-20.2,76.6-40.1,31.34-29.4,41.22-66.58,37.8-108.06,2.56-1.12,4.32-2.02,6.2-2.66,33.54-11.52,63.38-29.38,89.7-53,84.28-75.64,117.48-174.96,131.78-284.34-3.6,0-6.46-.14-9.3.02Zm-178.28,243.68c-38.9.1-66.88-27.44-66.62-65.56.22-35.04,30.78-64.58,66.72-64.54,35.74.04,64.02,29.4,64.02,66.46s-27.82,63.54-64.12,63.64Zm-240.59,99.89l63.99,63.99s-23.23,70.32-137.4,72.02c0,0-7-95.72,73.41-136.01Z"/>
      </g>
    </g>
  </g>
</svg>