<?xml version="1.0" encoding="UTF-8"?>
<svg id="Layer_2" data-name="Layer 2" xmlns="http://www.w3.org/2000/svg" xmlns:xlink="http://www.w3.org/1999/xlink" viewBox="0 0 900 900">
  <defs>
    <style>
      .cls-1 {
        fill: url(#catalystgrad2-2);
      }

      .cls-1, .cls-2 {
        stroke-width: 0px;
      }

      .cls-2 {
        fill: url(#catalystgrad2);
      }
    </style>
    <linearGradient id="catalystgrad2" x1="-113.66" y1="798.37" x2="870.37" y2="193.77" gradientUnits="userSpaceOnUse">
      <stop offset=".19" stop-color="#0f588d"/>
      <stop offset=".97" stop-color="#0da7cd"/>
    </linearGradient>
    <linearGradient id="catalystgrad2-2" data-name="catalystgrad2" x1="182.05" y1="698.53" x2="339.67" y2="561.02" xlink:href="#catalystgrad2"/>
  </defs>
  <g id="Layer_1-2" data-name="Layer 1">
    <g>
      <path class="cls-2" d="m900,450c0,248.52-201.48,450-450,450S-15.61,682.54.93,420.78C14.68,202.96,207.1,12.44,425.04.68c8.36-.46,16.68-.68,24.94-.68,54.02,0,105.82,9.52,153.8,26.96l-78.18,112.04c-23.62-5.72-48.24-8.84-73.56-9-180.22-1.12-326.76,148.6-321.92,328.74.8,29.96,5.72,58.88,14.2,86.22,5.62,18.06,12.76,35.44,21.34,51.96-.2.62-.38,1.24-.56,1.86-11.08,38.64-8.32,132.56-8.32,132.56,0,0,116.84,3.42,137.16-1.92,46.16,25.84,99.4,40.58,156.06,40.58,176.74,0,320-143.26,320-320h130Zm-174.5-259.2c-14.3,109.38-47.5,208.7-131.78,284.34-26.32,23.62-56.16,41.48-89.7,53-1.88.64-3.64,1.54-6.2,2.66,3.42,41.48-6.46,78.66-37.8,108.06-21.24,19.9-45.8,33.56-76.6,40.1,3.82-6.26,6.52-10.7,9.28-15.14,16.58-26.68,25.14-55.74,25.02-87.16-.02-3.82-1.88-8.36-4.36-11.3-7.84-9.24-16.22-17.98-26.16-28.72l71-71c3.58-3.58,5.38-8.3,5.38-13v-.12c1.02-4.76-.6-9.12-4.82-13.22-2.3-2.24-5.12-3.64-8.16-4.22-6.3-1.94-13.42-.42-18.4,4.56l-71.34,71.34c-.12.1-.24.2-.34.3-9.22-8.68-18.6-16.22-26.32-25.18-7.52-8.74-16-10.58-26.62-8.84-29.52,4.84-56.2,16.04-79.66,34.72-2.02,1.62-4.16,3.06-8.3,3.66,2.04-7.42,3.64-15.02,6.22-22.26,12.38-34.82,31.94-64.24,63.86-84.36,22.24-14,46.1-20.5,72.36-16.74,4.86.68,8.48.84,11.64-4.48,41.68-69.66,100.3-120.2,174.2-153.24,53.64-23.98,109.26-40.46,168.3-43.74,2.84-.16,5.7-.02,9.3-.02Zm-123.46,180.06c0-37.06-28.28-66.42-64.02-66.46-35.94-.04-66.5,29.5-66.72,64.54-.26,38.12,27.72,65.66,66.62,65.56,36.3-.1,64.12-27.72,64.12-63.64Z"/>
      <path class="cls-1" d="m297.33,534.39l63.99,63.99s-23.23,70.32-137.4,72.02c0,0-7-95.72,73.41-136.01Z"/>
    </g>
  </g>
</svg>